<svg width="100%" viewBox="0 0 680 420" xmlns="http://www.w3.org/2000/svg">
  <defs>
    <linearGradient id="screen" x1="0" y1="0" x2="1" y2="1">
      <stop offset="0%" stop-color="#d7ecf7" />
      <stop offset="100%" stop-color="#bcd6e4" />
    </linearGradient>
    <linearGradient id="wall" x1="0" y1="0" x2="0" y2="1">
      <stop offset="0%" stop-color="#f4f6f8" />
      <stop offset="100%" stop-color="#e9edf1" />
    </linearGradient>
  </defs>

  <rect width="680" height="420" fill="url(#wall)" />

  <rect x="62" y="298" width="556" height="12" rx="4" fill="#2a2a2a" />
  <rect x="120" y="200" width="440" height="10" rx="3" fill="#2a2a2a" />

  <rect x="165" y="150" width="28" height="50" rx="3" fill="#f5a623" />
  <rect x="197" y="154" width="24" height="46" rx="3" fill="#4a90d9" />
  <rect x="225" y="154" width="24" height="46" rx="3" fill="#357ab8" />

  <rect x="442" y="144" width="82" height="14" rx="3" fill="#ef5350" />
  <rect x="438" y="158" width="88" height="14" rx="3" fill="#ffa726" />
  <rect x="434" y="172" width="94" height="14" rx="3" fill="#66bb6a" />
  <rect x="430" y="186" width="100" height="14" rx="3" fill="#26a69a" />

  <ellipse cx="155" cy="299" rx="28" ry="5" fill="#cccccc" />
  <rect x="148" y="276" width="14" height="26" rx="3" fill="#d8d8d8" />
  <line x1="155" y1="276" x2="165" y2="240" stroke="#c8c8c8" stroke-width="8" stroke-linecap="round" />
  <line x1="165" y1="240" x2="196" y2="198" stroke="#c8c8c8" stroke-width="7" stroke-linecap="round" />
  <ellipse cx="196" cy="198" rx="22" ry="12" fill="#e0e0e0" transform="rotate(-35 196 198)" />

  <rect x="185" y="248" width="44" height="52" rx="6" fill="#e8e8e8" />
  <circle cx="207" cy="274" r="12" fill="#d0d0d0" />
  <rect x="508" y="248" width="44" height="52" rx="6" fill="#e8e8e8" />
  <circle cx="530" cy="274" r="12" fill="#d0d0d0" />

  <rect x="248" y="148" width="248" height="148" rx="10" fill="#1a1a2e" />
  <rect x="252" y="152" width="240" height="140" rx="8" fill="#212135" />
  <rect x="260" y="160" width="224" height="124" rx="4" fill="url(#screen)" />
  <rect x="260" y="160" width="46" height="124" rx="4" fill="#3a3a5a" />
  <rect x="306" y="162" width="176" height="120" rx="3" fill="#2d6e4e" />

  <circle cx="329" cy="191" r="9" fill="#f0c898" />
  <rect x="320" y="196" width="18" height="28" rx="4" fill="#2979b8" />
  <line x1="338" y1="208" x2="362" y2="202" stroke="#2979b8" stroke-width="4" stroke-linecap="round" />
  <text x="358" y="200" font-size="11" font-family="monospace" fill="#f5f0d0" font-weight="700">3x5=9</text>

  <path d="M476 265 L482 300 Q490 307 500 307 Q510 307 518 300 L524 265 Z" fill="#c0522a" />
  <ellipse cx="500" cy="265" rx="24" ry="5" fill="#a04020" />
  <path d="M524 275 Q540 275 540 285 Q540 295 524 295" fill="none" stroke="#c0522a" stroke-width="5" stroke-linecap="round" />

  <rect x="556" y="284" width="56" height="14" rx="3" fill="#26a69a" />
  <rect x="558" y="270" width="52" height="14" rx="3" fill="#66bb6a" />
  <rect x="560" y="256" width="48" height="14" rx="3" fill="#ffa726" />
  <rect x="562" y="242" width="44" height="14" rx="3" fill="#ef5350" />
</svg>
